<?xml version="1.0" encoding="UTF-8"?>
<svg width="13px" height="14px" viewBox="0 0 13 14" version="1.1" xmlns="http://www.w3.org/2000/svg" xmlns:xlink="http://www.w3.org/1999/xlink">
    <!-- Generator: Sketch 53.2 (72643) - https://sketchapp.com -->
    <title>分组</title>
    <desc>Created with Sketch.</desc>
    <defs>
        <polygon id="path-1" points="0 0 13 0 13 14 0 14"></polygon>
    </defs>
    <g id="页面-1" stroke-width="1" fill-rule="evenodd">
        <g id="Apple-TV-Copy-5" transform="translate(-521.000000, -122.000000)">
            <g id="分组" transform="translate(521.000000, 122.000000)">
                <mask id="mask-2" fill="white">
                    <use xlink:href="#path-1"></use>
                </mask>
                <g id="Clip-2"></g>
                <path d="M6.05169986,11.0902519 L1.1378527,8.52752681 C0.829094843,8.39798367 0.536570693,8.23344781 0.260359595,8.03385085 C0.0263593172,7.89384579 -0.0679168019,7.56822719 0.0523364266,7.29866189 L0.0523364266,7.29519168 C0.179095834,7.0290795 0.465113806,6.92405006 0.702335436,7.060602 L0.734818724,7.0816284 C0.897346247,7.18667494 1.08907223,7.29519168 1.2385874,7.37570741 L6.2077212,9.96995501 C6.39294101,10.0679927 6.60742275,10.0679927 6.79591151,9.96995501 L11.5148272,7.51220807 L11.9535658,7.26366917 L12.2883008,7.07808981 C12.5223011,6.93806766 12.8115245,7.03962689 12.9382998,7.30220048 C13.0649957,7.56477407 12.9805106,7.89384579 12.7497952,8.04087675 L12.7400042,8.04788555 L12.714027,8.06190315 L12.3792921,8.2474825 C12.2200494,8.33849434 12.0608067,8.42952327 11.901564,8.5170478 L6.94864803,11.0902519 C6.66593075,11.2373171 6.33771783,11.2373171 6.05169986,11.0902519 L6.05169986,11.0902519 Z M6.93569914,13.8910369 C6.65942457,14.0345464 6.33121165,14.0380849 6.05492121,13.8910369 L1.11511282,11.3247732 C0.812861134,11.1917599 0.520336983,11.027224 0.247347237,10.8381744 C0.133600188,10.7646675 0.0523364266,10.6456034 0.0231379652,10.5091027 C-0.01263015,10.3690293 0.00361942849,10.2219641 0.0686336113,10.0924894 C0.201851591,9.82639427 0.497581225,9.73538243 0.728360152,9.8858836 C0.890840068,9.99446872 1.09557841,10.1064557 1.24831493,10.1869885 L6.23369831,12.7742102 C6.39944718,12.8617518 6.59117317,12.8582132 6.75692204,12.7742102 L11.5148272,10.2990267 L11.9535658,10.0504195 L12.2883008,9.86492558 C12.5223011,9.72481795 12.8115245,9.82639427 12.9382998,10.0889508 C13.0292911,10.2780003 13.0162787,10.5195988 12.8895035,10.6981523 C12.850514,10.7506328 12.801797,10.7961729 12.7497952,10.8277125 L12.7400042,10.8346358 L12.714027,10.8486705 L12.3792921,11.0342328 C12.2203033,11.1268686 12.0599339,11.2167351 11.8982792,11.3038152 L6.93563567,13.8910369 L6.93569914,13.8910369 Z M6.49045435,7.93584731 C6.22397078,7.9253512 5.96070856,7.84835697 5.72348693,7.71527524 L0.588588386,5.27508448 C0.237619707,5.07902611 0.0133469594,4.69393527 0.00361942849,4.27029603 C-0.0191363289,3.82571586 0.179095834,3.39860641 0.526843162,3.15353772 L5.70723736,0.254732102 C6.19793019,-0.0883572201 6.83490098,-0.0848870092 7.32245181,0.265211114 L12.4475435,3.12550252 C12.8147459,3.3530663 13.0292911,3.79072314 12.9967602,4.24579942 C13.000045,4.67643037 12.7790412,5.07208569 12.4215188,5.26458838 L7.27043411,7.71527524 C7.02340561,7.84835697 6.76015926,7.92188099 6.49045435,7.93584731 L6.49045435,7.93584731 Z M6.16544691,1.08095 L1.13456788,4.05674985 C1.10530594,4.11276897 1.09229358,4.17581398 1.09879976,4.2388419 C1.09557841,4.28086052 1.10859077,4.32286203 1.13778923,4.35783766 L6.1492132,6.87856124 C6.36369494,7.06414059 6.66916797,7.06414059 6.88369732,6.87856124 L11.9210349,4.34382006 C11.9372686,4.24579942 11.9243197,4.14082127 11.8820455,4.05327964 L6.85115056,1.08095 C6.76015926,1.00742597 6.65291839,0.961885865 6.53917134,0.951406853 C6.40596923,0.958415654 6.27919396,1.00388738 6.16544691,1.08095 L6.16544691,1.08095 Z" id="Fill-1" stroke-width="0.5" mask="url(#mask-2)"></path>
            </g>
        </g>
    </g>
</svg>
