<?xml version="1.0" encoding="utf-8"?>
<!-- Generator: Adobe Illustrator 23.0.1, SVG Export Plug-In . SVG Version: 6.00 Build 0)  -->
<svg version="1.1" id="图层_1" xmlns="http://www.w3.org/2000/svg" xmlns:xlink="http://www.w3.org/1999/xlink" x="0px" y="0px"
	 viewBox="0 0 16 16" style="enable-background:new 0 0 16 16;" xml:space="preserve">
<style type="text/css">
	.st0{filter:url(#Adobe_OpacityMaskFilter);}
	.st1{fill-rule:evenodd;clip-rule:evenodd;fill:#FFFFFF;}
	.st2{mask:url(#mask-2_1_);fill-rule:evenodd;clip-rule:evenodd;fill:#545F78;}
</style>
<g id="页面-1">
	<g id="商品列表-首页-copy-36" transform="translate(-1837.000000, -257.000000)">
		<g id="分组" transform="translate(1837.000000, 257.000000)">
			<defs>
				<filter id="Adobe_OpacityMaskFilter" filterUnits="userSpaceOnUse" x="0" y="0" width="16" height="16">
					<feColorMatrix  type="matrix" values="1 0 0 0 0  0 1 0 0 0  0 0 1 0 0  0 0 0 1 0"/>
				</filter>
			</defs>
			<mask maskUnits="userSpaceOnUse" x="0" y="0" width="16" height="16" id="mask-2_1_">
				<g class="st0">
					<polygon id="path-1_1_" class="st1" points="0,0 16,0 16,16 0,16 					"/>
				</g>
			</mask>
			<path id="Fill-1" class="st2" d="M0.1,9.3L0.1,9.3C0.1,9.2,0.1,9.2,0.1,9.3L0.1,9.3z M0.1,9.3c0,0.2,0.1,0.3,0.1,0.5
				C0.2,9.9,0.1,9.5,0.1,9.3L0.1,9.3z M8,16c-3.7,0-6.9-2.6-7.8-6.2c0,0,0-0.1,0-0.1c0-0.4,0.3-1,0.7-1c0.2,0,0.4,0.1,0.5,0.2
				c0.1,0.1,0.2,0.3,0.2,0.5c0,0.1,0,0.1,0,0.1c0-0.1-0.1-0.2-0.1-0.2C1.6,9,1.7,9.5,1.7,9.6c0.8,2.9,3.5,5,6.5,4.9
				c3-0.1,5.6-2.3,6.1-5.3c0.5-3-1.1-6-3.9-7.1C7.7,0.8,4.4,1.8,2.7,4.2H4c0.4,0,0.7,0.3,0.7,0.8c0,0.4-0.3,0.7-0.7,0.7H0.7
				C0.3,5.7,0,5.4,0,5V2c0-0.4,0.3-0.8,0.7-0.8S1.5,1.6,1.5,2v1.3c2.2-3.1,6.3-4.2,9.7-2.7c3.5,1.5,5.4,5.3,4.6,9
				C15,13.4,11.8,16,8,16L8,16z M8.3,4.6v3.7h2.6c0.3,0,0.5,0.1,0.7,0.4c0.1,0.2,0.1,0.5,0,0.8c-0.1,0.2-0.4,0.4-0.7,0.4H7.5
				c-0.4,0-0.8-0.3-0.8-0.8V4.6c0-0.4,0.4-0.8,0.8-0.8C7.9,3.8,8.3,4.2,8.3,4.6L8.3,4.6z"/>
		</g>
	</g>
</g>
</svg>
